<svg id="Layer_1" data-name="Layer 1" xmlns="http://www.w3.org/2000/svg" viewBox="0 0 46.66 52.78"><title>and</title><path d="M151.67,68a25.82,25.82,0,0,1-6.62,6,16.26,16.26,0,0,1-8.64,2.16,19.67,19.67,0,0,1-6.19-1,15.1,15.1,0,0,1-5.15-2.84,14.14,14.14,0,0,1-3.53-4.57,13.73,13.73,0,0,1-1.33-6.16,13.23,13.23,0,0,1,.9-4.93,14.74,14.74,0,0,1,2.45-4.1,17.89,17.89,0,0,1,3.6-3.24,30.94,30.94,0,0,1,4.36-2.48,31.76,31.76,0,0,1-4.32-5.33,11.74,11.74,0,0,1-1.8-6.48,11.19,11.19,0,0,1,1.08-5,10.9,10.9,0,0,1,2.88-3.67,12.48,12.48,0,0,1,4.18-2.23,16.51,16.51,0,0,1,5-.76,16.34,16.34,0,0,1,4.9.72,12.42,12.42,0,0,1,4.07,2.12,9.83,9.83,0,0,1,2.77,3.53,11.39,11.39,0,0,1,1,4.93,9.75,9.75,0,0,1-1,4.36,13.13,13.13,0,0,1-2.52,3.53,22.06,22.06,0,0,1-3.46,2.81,42.44,42.44,0,0,1-3.85,2.27l10.8,11.45,6.84-11.45H165L155.2,63.4l11.66,12h-8.28ZM135.25,50.58A36.87,36.87,0,0,0,132,52.49a18.31,18.31,0,0,0-2.88,2.34,10.62,10.62,0,0,0-2.09,3,8.39,8.39,0,0,0-.79,3.67,9,9,0,0,0,.79,3.82,9.67,9.67,0,0,0,2.16,3,9.88,9.88,0,0,0,3.17,2,10.17,10.17,0,0,0,3.82.72,10.87,10.87,0,0,0,3.6-.58,12.64,12.64,0,0,0,3.06-1.55,19.31,19.31,0,0,0,2.66-2.23q1.26-1.26,2.48-2.7ZM136.76,44q1.44-.79,3-1.66a16.48,16.48,0,0,0,2.74-1.94,9.35,9.35,0,0,0,2-2.52,6.76,6.76,0,0,0,.79-3.31,5.4,5.4,0,0,0-1.91-4.39,6.93,6.93,0,0,0-4.57-1.58,7.74,7.74,0,0,0-5.18,1.84,6.22,6.22,0,0,0-2.16,5,6.37,6.37,0,0,0,1.12,3.71,24.62,24.62,0,0,0,2.41,3Z" transform="translate(-120.2 -23.44)"/></svg>
